:version 1.10
:name ASF
:units
  mass 1
  length 1
  angle deg
:documentation
  ASF file generated by Kaydara
:root
  axis xyz
  order  tx ty tz rx ry rz
  position 0 0 0
  orientation 0 0 0
:bonedata
  begin
    id 1
    name SpineDummy
    direction 0.999998 -0.00179978 1.38929e-006
    length 3.60008
    axis 0 0 0 xyz
  end
  begin
    id 2
    name Spine
    direction 0.964365 0.262802 0.0305839
    length 8.13928
    axis 1.33928 -1.75354 15.2838 xyz
    dof rx ry rz
  end
  begin
    id 3
    name Spine1
    direction 0.811168 0.572065 0.12144
    length 7.14954
    axis 2.2224 -6.9761 35.2157 xyz
    dof rx ry rz
  end
  begin
    id 4
    name Neck
    direction 0 0 0
    length 0
    axis 2.2224 -6.9761 35.2157 xyz
    dof rx ry rz
  end
  begin
    id 5
    name HeadDummy
    direction 0.810939 0.572387 0.121455
    length 3.55534
    axis 2.2224 -6.9761 35.2157 xyz
  end
  begin
    id 6
    name Head
    direction 0.998226 -0.000232542 0.0595419
    length 7.35666
    axis -3.03688 -3.41352 -0.0133467 xyz
    dof rx ry rz
  end
  begin
    id 7
    name R_ClavicleDummy
    direction 0.531669 -0.194489 -0.824319
    length 2.49392
    axis 2.2224 -6.9761 35.2157 xyz
  end
  begin
    id 8
    name R_Clavicle
    direction -0.155119 0.0480802 -0.986725
    length 4.485
    axis -54.2764 80.6538 162.779 xyz
    dof rx ry rz
  end
  begin
    id 9
    name R_UpperArm
    direction -0.955567 0.200068 -0.216484
    length 10.1122
    axis -72.9943 12.5026 168.175 xyz
    dof rx ry rz
  end
  begin
    id 10
    name R_Forearm
    direction -0.61433 0.385743 0.688332
    length 9.39148
    axis -117.015 -43.4982 147.875 xyz
    dof rx ry rz
  end
  begin
    id 11
    name R_Hand
    direction -0.699429 0.0170333 0.714499
    length 3.66324
    axis -45.0303 -36.7097 175.478 xyz
    dof rx ry rz
  end
  begin
    id 12
    name L_ClavicleDummy
    direction 0.40287 -0.36502 0.839319
    length 2.49392
    axis 2.2224 -6.9761 35.2157 xyz
  end
  begin
    id 13
    name L_Clavicle
    direction -0.231271 -0.0726419 0.970174
    length 4.485
    axis 18.4357 -75.9711 -162.563 xyz
    dof rx ry rz
  end
  begin
    id 14
    name L_UpperArm
    direction -0.917494 0.144359 0.370629
    length 10.1122
    axis 56.0417 -21.7544 171.058 xyz
    dof rx ry rz
  end
  begin
    id 15
    name L_Forearm
    direction -0.496786 0.615074 -0.612281
    length 9.39148
    axis 89.8094 37.7546 128.927 xyz
    dof rx ry rz
  end
  begin
    id 16
    name L_Hand
    direction -0.409932 0.64962 -0.640274
    length 3.66324
    axis -0.424369 32.133 128.52 xyz
    dof rx ry rz
  end
  begin
    id 17
    name L_ThighDummy
    direction -1.84081e-006 1.87549e-006 1
    length 3.13049
    axis 0 0 0 xyz
  end
  begin
    id 18
    name L_Thigh
    direction -0.947739 0.307978 0.083308
    length 17.9961
    axis 173.219 -4.77873 161.998 xyz
    dof rx ry rz
  end
  begin
    id 19
    name L_Calf
    direction -0.728814 -0.684427 0.0197583
    length 13.3367
    axis 167.331 -1.13214 -136.799 xyz
    dof rx ry rz
  end
  begin
    id 20
    name L_Foot
    direction -0.9028 0.418719 0.0981191
    length 5.8674
    axis 163.436 11.5135 -155.37 xyz
    dof rx ry rz
  end
  begin
    id 21
    name L_Toe0
    direction -0.35341 0.886259 0.299411
    length 4.75286
    axis 169.316 -17.4222 111.74 xyz
    dof rx ry rz
  end
  begin
    id 22
    name R_ThighDummy
    direction 9.32778e-007 -8.82053e-007 -1
    length 3.13049
    axis 0 0 0 xyz
  end
  begin
    id 23
    name R_Thigh
    direction -0.925064 0.37528 -0.0585023
    length 17.9961
    axis -178.698 3.35385 157.919 xyz
    dof rx ry rz
  end
  begin
    id 24
    name R_Calf
    direction -0.68969 -0.718776 -0.0876886
    length 13.3367
    axis -160.504 5.03065 -133.817 xyz
    dof rx ry rz
  end
  begin
    id 25
    name R_Foot
    direction -0.857405 0.418858 -0.299022
    length 5.8674
    axis -161.328 4.38911 -154.413 xyz
    dof rx ry rz
  end
  begin
    id 26
    name R_Toe0
    direction -0.100745 0.952789 -0.286433
    length 4.75286
    axis 171.683 16.6445 96.0359 xyz
    dof rx ry rz
  end
:hierarchy
  begin
    root SpineDummy L_ThighDummy R_ThighDummy
    SpineDummy Spine
    Spine Spine1
    Spine1 Neck
    Neck HeadDummy R_ClavicleDummy L_ClavicleDummy
    HeadDummy Head
    R_ClavicleDummy R_Clavicle
    R_Clavicle R_UpperArm
    R_UpperArm R_Forearm
    R_Forearm R_Hand
    L_ClavicleDummy L_Clavicle
    L_Clavicle L_UpperArm
    L_UpperArm L_Forearm
    L_Forearm L_Hand
    L_ThighDummy L_Thigh
    L_Thigh L_Calf
    L_Calf L_Foot
    L_Foot L_Toe0
    R_ThighDummy R_Thigh
    R_Thigh R_Calf
    R_Calf R_Foot
    R_Foot R_Toe0
  end

:SAMPLES-PER-SECOND 30
:FULLY-SPECIFIED
:DEGREES
474
root  7.27928 28.983 -11.9346 57.1194 -13.8198 98.8971
Spine  -3.15223 9.53359 14.7365
Spine1  -4.15428 -12.3043 -38.5819
Neck  3.97569e-016 0 -2.38542e-015
Head  4.60565 -0.160006 55.4742
R_Clavicle  16.4932 46.9404 29.4671
R_UpperArm  141.9 40.6875 65.0988
R_Forearm  5.38856 21.3263 -18.9559
R_Hand  -3.02124 7.9818 -34.4669
L_Clavicle  -17.6926 -37.6561 39.7421
L_UpperArm  -145.072 -63.6938 45.3195
L_Forearm  -6.73182 -18.1695 -22.2749
L_Hand  -1.03386 -0.424879 -22.6394
L_Thigh  0.967024 -13.7634 -9.17093
L_Calf  -4.68176 -2.27522 16.6885
L_Foot  15.1279 10.896 37.3963
L_Toe0  0.483401 0.0317506 -6.039
R_Thigh  -2.47767 15.5699 39.5832
R_Calf  -1.10092 9.12352 31.5815
R_Foot  -1.75069 -8.05693 -3.11268
R_Toe0  -1.78853 -0.272788 -17.3235
475
root  7.02927 28.0677 -12.0049 58.3056 -10.1306 94.5571
Spine  -2.15071 11.6991 14.716
Spine1  -3.92437 -12.0724 -32.4532
Neck  3.97569e-016 0 -2.38542e-015
Head  3.81614 0.654118 53.3344
R_Clavicle  14.6215 45.3821 26.911
R_UpperArm  134.335 33.0094 57.9338
R_Forearm  33.3964 26.8294 -24.8756
R_Hand  -3.08943 6.42096 -36.6823
L_Clavicle  -15.2038 -34.8898 36.3277
L_UpperArm  -133.269 -56.7282 32.8884
L_Forearm  -23.5573 -21.9163 -27.6849
L_Hand  -1.07404 -0.688605 -24.5851
L_Thigh  2.6061 -13.1105 -9.67272
L_Calf  -9.22874 -0.556971 3.52991
L_Foot  13.1958 7.04564 38.3838
L_Toe0  -0.0900947 0.0334453 0.145046
R_Thigh  -2.07254 17.3201 38.5835
R_Calf  -1.44362 7.49991 24.2534
R_Foot  -1.45766 -6.64412 -2.54851
R_Toe0  -1.78853 -0.272788 -17.3235
476
root  6.35749 27.3818 -11.4965 59.931 -4.58958 88.2832
Spine  -2.33461 12.1771 10.4373
Spine1  -4.8155 -7.68427 -19.2765
Neck  3.97569e-016 0 -2.38542e-015
Head  3.68312 -0.316988 53.0224
R_Clavicle  7.47668 42.223 14.9587
R_UpperArm  124.845 26.0105 54.1986
R_Forearm  54.18 31.9739 -31.2649
R_Hand  -2.54228 4.72478 -33.4812
L_Clavicle  -9.77041 -27.8856 27.5947
L_UpperArm  -118.781 -49.6273 23.952
L_Forearm  -38.5902 -24.9741 -32.5335
L_Hand  -1.30054 2.56733 -17.4212
L_Thigh  2.33838 -10.3321 -12.6522
L_Calf  -10.5553 1.46288 -11.1398
L_Foot  9.90215 5.72272 30.6048
L_Toe0  -0.806968 -0.182908 15.9007
R_Thigh  2.39982 18.1152 34.1102
R_Calf  0.319438 5.14712 16.4144
R_Foot  -1.47036 -4.70011 0.718198
R_Toe0  -1.78853 -0.272788 -17.3235
477
root  5.4654 26.987 -10.4492 62.1218 2.42229 83.3432
Spine  -4.03222 10.1804 3.96366
Spine1  -5.55605 -1.80576 -4.50802
Neck  3.97569e-016 0 -2.38542e-015
Head  3.17498 -1.11845 53.7107
R_Clavicle  2.02352 23.6276 7.00046
R_UpperArm  113.83 29.3295 59.5403
R_Forearm  68.459 33.813 -33.8335
R_Hand  -1.98557 3.85378 -28.7397
L_Clavicle  -4.31093 -12.9336 18.8566
L_UpperArm  -103.521 -43.7282 20.8955
L_Forearm  -55.0955 -25.3942 -33.2367
L_Hand  -1.0409 8.37644 -8.35331
L_Thigh  2.10071 -7.71786 -18.3405
L_Calf  -10.2241 2.69875 -20.3834
L_Foot  6.13448 4.19711 20.3256
L_Toe0  -0.745946 -0.533833 25.4203
R_Thigh  8.10612 15.775 26.9232
R_Calf  2.45405 2.53087 8.01691
R_Foot  -0.901359 -2.45844 1.36457
R_Toe0  -1.75037 -0.27477 -17.3572
478
root  4.52725 26.658 -9.12288 63.8055 8.76819 80.6153
Spine  -5.21728 6.93141 -2.75291
Spine1  -4.92171 3.27008 7.15996
Neck  3.97569e-016 0 -2.38542e-015
Head  1.1344 -0.753269 54.8086
R_Clavicle  -0.409438 2.34967 -2.43793
R_UpperArm  97.7723 34.2565 59.3193
R_Forearm  74.2582 35.985 -37.1252
R_Hand  -1.4929 0.491768 -24.4399
L_Clavicle  -1.2951 -1.87044 9.92399
L_UpperArm  -87.5548 -36.9666 21.2355
L_Forearm  -67.8102 -23.5524 -30.2178
L_Hand  -0.303806 12.8153 -1.72523
L_Thigh  0.988507 -5.90704 -25.5243
L_Calf  -12.2198 3.1123 -23.6333
L_Foot  4.65424 3.79208 15.2103
L_Toe0  -3.67838 1.26007 23.982
R_Thigh  13.3202 11.7028 19.0496
R_Calf  4.39086 -0.166263 -0.447948
R_Foot  -0.279566 -0.450552 1.25337
R_Toe0  -2.16461 -0.255676 -17.0705
479
root  3.6185 26.239 -7.85104 64.6992 12.6191 79.1895
Spine  -5.44517 3.61899 -9.86457
Spine1  -3.43787 8.21315 14.5765
Neck  3.97569e-016 0 -2.38542e-015
Head  -1.8067 -0.691938 56.5949
R_Clavicle  0.311391 -12.1317 1.36648
R_UpperArm  80.2432 24.9002 53.5763
R_Forearm  72.0442 39.4863 -43.2123
R_Hand  -1.23944 -2.01738 -20.1549
L_Clavicle  -0.519525 13.8333 1.41525
L_UpperArm  -73.0503 -26.8957 25.4641
L_Forearm  -72.0198 -20.6718 -25.8258
L_Hand  0.441951 15.3892 2.66802
L_Thigh  -1.12885 -3.29515 -32.2283
L_Calf  -12.7562 3.07131 -23.2866
L_Foot  3.752 2.06395 14.2228
L_Toe0  -5.75777 2.56928 23.6426
R_Thigh  17.4823 8.50719 12.9874
R_Calf  7.34487 -2.57516 -7.94752
R_Foot  -0.913514 -1.26075 4.26777
R_Toe0  -3.13327 -0.179554 -15.3833
480
root  2.83732 25.6786 -6.82165 65.0813 14.0001 79.0934
Spine  -5.5813 -0.478813 -17.366
Spine1  -2.10816 13.7176 18.9637
Neck  3.97569e-016 0 -2.38542e-015
Head  -3.59283 -3.1533 58.3416
R_Clavicle  0.419879 -23.4382 2.15943
R_UpperArm  69.0417 11.7263 55.5919
R_Forearm  69.2798 40.8159 -45.8614
R_Hand  -1.09459 -3.20598 -15.454
L_Clavicle  -0.615882 25.904 1.50053
L_UpperArm  -61.0875 -13.9872 33.9454
L_Forearm  -71.1418 -16.9601 -20.6161
L_Hand  1.1608 17.3969 6.05488
L_Thigh  -3.96272 -0.690936 -37.2993
L_Calf  -11.1548 2.81923 -21.2755
L_Foot  3.43642 -0.0812228 16.4869
L_Toe0  -6.74003 3.36667 25.9897
R_Thigh  19.9089 6.64858 9.7144
R_Calf  9.43942 -4.37185 -13.5857
R_Foot  -2.13898 -1.45144 12.8677
R_Toe0  -1.36805 -0.202047 -14.733
481
root  2.3394 24.9127 -6.10048 64.5381 14.163 80.4024
Spine  -5.79761 -4.43817 -23.2074
Spine1  -1.63242 17.7238 21.2738
Neck  3.97569e-016 0 -2.38542e-015
Head  -2.80753 -7.93987 58.1561
R_Clavicle  0.277336 -34.1124 3.35966
R_UpperArm  62.8787 0.135479 62.0858
R_Forearm  69.7693 39.1668 -42.6069
R_Hand  -0.990946 -3.31006 -11.7895
L_Clavicle  -0.532238 31.9463 2.67638
L_UpperArm  -51.0334 0.995875 43.2179
L_Forearm  -67.1857 -12.2206 -14.479
L_Hand  1.59142 18.4156 7.8467
L_Thigh  -6.7666 0.016186 -40.6852
L_Calf  -8.20667 2.60056 -19.5391
L_Foot  3.2042 -2.8381 20.9793
L_Toe0  -5.81541 2.85593 28.4077
R_Thigh  20.0598 5.67681 9.85151
R_Calf  10.1641 -5.82026 -18.2742
R_Foot  -3.22562 -1.39371 20.7354
R_Toe0  -1.69062 -0.276861 -17.4721
482
root  2.28597 24.0072 -5.81633 62.597 14.008 81.7509
Spine  -6.16072 -4.7667 -24.8279
Spine1  -2.19957 18.0347 21.1601
Neck  3.97569e-016 0 -2.38542e-015
Head  -0.396318 -11.9845 55.3116
R_Clavicle  0.181831 -37.7889 3.68923
R_UpperArm  60.0909 -11.0193 65.0263
R_Forearm  66.5921 35.09 -35.7301
R_Hand  -0.764141 -0.675978 -11.7934
L_Clavicle  -0.43855 32.4563 3.30275
L_UpperArm  -41.4561 13.5605 49.1256
L_Forearm  -54.4402 -6.52713 -7.58496
L_Hand  1.1676 17.2035 6.17957
L_Thigh  -8.45528 -1.42379 -42.6558
L_Calf  -5.06006 2.59637 -19.4847
L_Foot  2.88878 -5.73342 26.6346
L_Toe0  -2.67991 0.581646 29.3452
R_Thigh  18.4194 5.7093 12.9469
R_Calf  11.283 -7.33154 -23.35
R_Foot  -3.36802 -0.932059 23.2634
R_Toe0  -1.63754 -0.271301 -17.2376
483
root  2.76108 23.1844 -6.07669 60.0405 13.3156 82.2999
Spine  -6.69313 -0.534469 -22.1614
Spine1  -3.17053 15.5141 19.3061
Neck  3.97569e-016 0 -2.38542e-015
Head  1.25192 -13.0167 50.9144
R_Clavicle  0.287629 -35.2191 3.20004
R_UpperArm  57.559 -13.9642 62.045
R_Forearm  54.2688 28.1492 -26.4182
R_Hand  -0.533914 3.79812 -13.0058
L_Clavicle  -0.592385 30.4275 2.19669
L_UpperArm  -30.113 17.1008 48.6487
L_Forearm  -33.9997 0.583929 0.687312
L_Hand  0.462045 14.3516 2.91057
L_Thigh  -9.14639 -3.91716 -42.1926
L_Calf  -3.26622 2.88993 -21.7945
L_Foot  2.88883 -7.42701 31.9391
L_Toe0  0.828935 -1.92708 29.1017
R_Thigh  16.5866 6.59102 17.6522
R_Calf  13.4557 -8.49373 -27.4155
R_Foot  -3.20214 -0.944667 22.0584
R_Toe0  -0.677519 -0.26611 -16.6915
484
root  3.75085 22.6107 -6.87066 57.9228 11.4254 82.9151
Spine  -6.75444 5.76149 -16.8689
Spine1  -3.80953 12.7461 16.9173
Neck  3.97569e-016 0 -2.38542e-015
Head  1.57536 -12.2675 45.3609
R_Clavicle  0.405109 -30.8426 2.35832
R_UpperArm  52.9137 -5.42311 54.8861
R_Forearm  35.3361 17.9639 -15.6535
R_Hand  -0.114757 7.54461 -11.7766
L_Clavicle  -0.805587 28.0846 0.105171
L_UpperArm  -14.3203 11.6444 40.9122
L_Forearm  -14.0742 8.02404 9.39099
L_Hand  0.0930541 11.4712 0.852611
L_Thigh  -10.7242 -6.77173 -37.6765
L_Calf  -4.74351 3.46168 -26.3991
L_Foot  3.31324 -7.77321 35.6974
L_Toe0  1.93941 -2.60565 28.325
R_Thigh  15.3513 6.89078 23.7002
R_Calf  12.633 -8.85222 -28.6927
R_Foot  -2.99762 -1.58618 18.5357
R_Toe0  -0.258385 -0.270351 -16.4531
485
root  5.11476 22.28 -8.11134 55.8203 8.29121 84.2027
Spine  -5.38975 12.0392 -8.49673
Spine1  -3.97004 10.6397 12.7444
Neck  3.97569e-016 0 -2.38542e-015
Head  2.38736 -11.7439 37.8247
R_Clavicle  0.440116 -24.5734 1.36512
R_UpperArm  45.0755 6.31083 44.2921
R_Forearm  17.1036 5.31596 -4.46067
R_Hand  0.237374 8.68982 -9.89199
L_Clavicle  -0.891989 24.8724 -2.09356
L_UpperArm  5.85567 4.11492 29.8076
L_Forearm  3.22436 11.8417 14.041
L_Hand  -0.24327 8.94211 -1.64348
L_Thigh  -14.8392 -9.65314 -29.1807
L_Calf  -9.76725 4.13038 -32.0098
L_Foot  3.76147 -7.60576 37.666
L_Toe0  0.21055 -1.31936 27.3303
R_Thigh  14.6579 7.06275 30.8427
R_Calf  8.94694 -8.24037 -26.5032
R_Foot  -3.29886 -3.8196 14.0438
R_Toe0  -1.15632 -0.266357 -16.9641
486
root  6.61154 22.1224 -9.64108 52.8078 4.52244 85.8351
Spine  -1.76421 17.0841 4.36281
Spine1  -3.55697 8.25084 5.50269
Neck  3.97569e-016 0 -2.38542e-015
Head  4.98578 -11.261 27.9279
R_Clavicle  0.305526 -15.6111 0.184828
R_UpperArm  33.3211 14.2464 31.1222
R_Forearm  7.71588 -9.07932 7.88308
R_Hand  -0.0124498 9.13565 -12.0154
L_Clavicle  -0.699919 19.4971 -4.3581
L_UpperArm  22.2245 0.0369805 20.8074
L_Forearm  15.6211 10.4759 12.3562
L_Hand  -0.526177 5.97657 -5.03939
L_Thigh  -20.6899 -11.8014 -18.7422
L_Calf  -15.5555 4.6546 -36.6649
L_Foot  4.16432 -7.25132 38.6127
L_Toe0  -1.69282 0.0136827 25.8983
R_Thigh  14.2331 8.3127 38.2226
R_Calf  4.63999 -6.86325 -21.7497
R_Foot  -3.15392 -6.54679 7.13284
R_Toe0  -1.84897 -0.272937 -17.3579
487
root  8.04993 22.1497 -11.1649 49.4155 0.747494 88.3041
Spine  3.06006 19.47 18.7606
Spine1  -2.60305 5.10359 -2.45875
Neck  3.97569e-016 0 -2.38542e-015
Head  8.42063 -9.61858 16.2391
R_Clavicle  -0.107567 -6.48212 -1.6533
R_UpperArm  22.8403 20.7327 19.0801
R_Forearm  2.77659 -24.3073 19.2765
R_Hand  -0.770206 10.4623 -17.6934
L_Clavicle  -0.178108 12.8732 -6.6226
L_UpperArm  29.8812 -1.34786 16.2625
L_Forearm  21.1419 5.84673 6.81209
L_Hand  -0.578508 4.04217 -6.74368
L_Thigh  -25.4568 -13.4425 -8.3129
L_Calf  -19.0682 4.88508 -38.8129
L_Foot  4.65549 -6.74125 39.4343
L_Toe0  -1.37017 -0.110309 24.2472
R_Thigh  14.0767 9.86573 44.971
R_Calf  1.21009 -5.02516 -15.6735
R_Foot  -2.60324 -9.87931 -1.1205
R_Toe0  -1.78853 -0.268992 -17.3236
488
root  9.35099 22.3478 -12.4067 46.899 -2.91086 92.6101
Spine  7.07127 20.5912 29.8026
Spine1  -1.52688 0.771865 -8.29053
Neck  3.97569e-016 0 -2.38542e-015
Head  10.1635 -7.52499 4.19757
R_Clavicle  -0.847183 0.486235 -4.17647
R_UpperArm  30.5241 28.2293 12.49
R_Forearm  -13.9418 -40.7258 24.6851
R_Hand  -1.5611 11.0739 -22.8291
L_Clavicle  0.476434 7.1944 -8.58256
L_UpperArm  33.3775 -2.56581 14.2215
L_Forearm  23.3033 0.612024 0.722549
L_Hand  -0.635276 3.89178 -7.51511
L_Thigh  -27.5531 -16.1124 1.60807
L_Calf  -20.5016 4.79548 -37.9999
L_Foot  5.45613 -5.97565 40.8438
L_Toe0  0.552082 -1.0057 21.3455
R_Thigh  14.2559 9.83286 51.1651
R_Calf  -2.27848 -2.99732 -9.20715
R_Foot  -1.9276 -13.5037 -8.26654
R_Toe0  -1.78853 -0.267285 -17.3237
